<mxfile host="app.diagrams.net" modified="2021-04-11T20:56:59.416Z" agent="5.0 (Windows NT 10.0; Win64; x64) AppleWebKit/537.36 (KHTML, like Gecko) Chrome/89.0.4389.114 Safari/537.36" etag="mrFJ5SS4zSVEQ6UUggiS" version="14.5.10" type="gitlab">
  <diagram id="C5RBs43oDa-KdzZeNtuy" name="Page-1">
    <mxGraphModel dx="2222" dy="800" grid="1" gridSize="10" guides="1" tooltips="1" connect="1" arrows="1" fold="1" page="0" pageScale="1" pageWidth="827" pageHeight="1169" background="none" math="0" shadow="0">
      <root>
        <mxCell id="WIyWlLk6GJQsqaUBKTNV-0" />
        <mxCell id="WIyWlLk6GJQsqaUBKTNV-1" parent="WIyWlLk6GJQsqaUBKTNV-0" />
        <mxCell id="WIyWlLk6GJQsqaUBKTNV-2" value="" style="rounded=0;html=1;jettySize=auto;orthogonalLoop=1;fontSize=11;endArrow=classicThin;endFill=1;endSize=8;strokeWidth=1;shadow=0;labelBackgroundColor=none;edgeStyle=orthogonalEdgeStyle;" parent="WIyWlLk6GJQsqaUBKTNV-1" source="WIyWlLk6GJQsqaUBKTNV-3" edge="1">
          <mxGeometry relative="1" as="geometry">
            <mxPoint x="265" y="270" as="targetPoint" />
          </mxGeometry>
        </mxCell>
        <mxCell id="WIyWlLk6GJQsqaUBKTNV-3" value="user uses frontend" style="rounded=1;whiteSpace=wrap;html=1;fontSize=12;glass=0;strokeWidth=1;shadow=0;" parent="WIyWlLk6GJQsqaUBKTNV-1" vertex="1">
          <mxGeometry x="205" y="180" width="120" height="40" as="geometry" />
        </mxCell>
        <mxCell id="NfqlUaPuq0_2wCcx_4f7-4" style="edgeStyle=orthogonalEdgeStyle;rounded=0;orthogonalLoop=1;jettySize=auto;html=1;exitX=0.5;exitY=1;exitDx=0;exitDy=0;entryX=0.5;entryY=0;entryDx=0;entryDy=0;" edge="1" parent="WIyWlLk6GJQsqaUBKTNV-1" source="NfqlUaPuq0_2wCcx_4f7-0" target="NfqlUaPuq0_2wCcx_4f7-3">
          <mxGeometry relative="1" as="geometry" />
        </mxCell>
        <mxCell id="NfqlUaPuq0_2wCcx_4f7-0" value="action is sent into backend" style="rounded=1;whiteSpace=wrap;html=1;fontSize=12;glass=0;strokeWidth=1;shadow=0;" vertex="1" parent="WIyWlLk6GJQsqaUBKTNV-1">
          <mxGeometry x="205" y="270" width="120" height="40" as="geometry" />
        </mxCell>
        <mxCell id="NfqlUaPuq0_2wCcx_4f7-10" value="yes" style="edgeStyle=orthogonalEdgeStyle;rounded=0;orthogonalLoop=1;jettySize=auto;html=1;exitX=1;exitY=0.5;exitDx=0;exitDy=0;endArrow=classicThin;endFill=1;" edge="1" parent="WIyWlLk6GJQsqaUBKTNV-1" source="NfqlUaPuq0_2wCcx_4f7-3" target="NfqlUaPuq0_2wCcx_4f7-7">
          <mxGeometry relative="1" as="geometry" />
        </mxCell>
        <mxCell id="NfqlUaPuq0_2wCcx_4f7-13" value="no" style="edgeStyle=orthogonalEdgeStyle;rounded=0;orthogonalLoop=1;jettySize=auto;html=1;exitX=0;exitY=0.5;exitDx=0;exitDy=0;entryX=0.5;entryY=0;entryDx=0;entryDy=0;endArrow=classicThin;endFill=1;" edge="1" parent="WIyWlLk6GJQsqaUBKTNV-1" source="NfqlUaPuq0_2wCcx_4f7-3" target="NfqlUaPuq0_2wCcx_4f7-12">
          <mxGeometry relative="1" as="geometry" />
        </mxCell>
        <mxCell id="NfqlUaPuq0_2wCcx_4f7-3" value="dose the &lt;br&gt;user want to quit&amp;nbsp;" style="rhombus;whiteSpace=wrap;html=1;" vertex="1" parent="WIyWlLk6GJQsqaUBKTNV-1">
          <mxGeometry x="200" y="360" width="130" height="130" as="geometry" />
        </mxCell>
        <mxCell id="NfqlUaPuq0_2wCcx_4f7-7" value="end&amp;nbsp;" style="shape=parallelogram;perimeter=parallelogramPerimeter;whiteSpace=wrap;html=1;fixedSize=1;" vertex="1" parent="WIyWlLk6GJQsqaUBKTNV-1">
          <mxGeometry x="420" y="395" width="120" height="60" as="geometry" />
        </mxCell>
        <mxCell id="NfqlUaPuq0_2wCcx_4f7-9" style="edgeStyle=orthogonalEdgeStyle;rounded=0;orthogonalLoop=1;jettySize=auto;html=1;entryX=0.5;entryY=0;entryDx=0;entryDy=0;endArrow=classicThin;endFill=1;" edge="1" parent="WIyWlLk6GJQsqaUBKTNV-1" source="NfqlUaPuq0_2wCcx_4f7-8" target="WIyWlLk6GJQsqaUBKTNV-3">
          <mxGeometry relative="1" as="geometry" />
        </mxCell>
        <mxCell id="NfqlUaPuq0_2wCcx_4f7-8" value="starts&lt;br&gt;connection between backend and forend" style="shape=parallelogram;perimeter=parallelogramPerimeter;whiteSpace=wrap;html=1;fixedSize=1;" vertex="1" parent="WIyWlLk6GJQsqaUBKTNV-1">
          <mxGeometry x="160" y="10" width="210" height="90" as="geometry" />
        </mxCell>
        <mxCell id="NfqlUaPuq0_2wCcx_4f7-15" value="" style="edgeStyle=orthogonalEdgeStyle;rounded=0;orthogonalLoop=1;jettySize=auto;html=1;endArrow=classicThin;endFill=1;" edge="1" parent="WIyWlLk6GJQsqaUBKTNV-1" source="NfqlUaPuq0_2wCcx_4f7-12">
          <mxGeometry relative="1" as="geometry">
            <mxPoint x="120" y="550" as="targetPoint" />
          </mxGeometry>
        </mxCell>
        <mxCell id="NfqlUaPuq0_2wCcx_4f7-12" value="prints&amp;nbsp;&lt;br&gt;board" style="rounded=1;whiteSpace=wrap;html=1;" vertex="1" parent="WIyWlLk6GJQsqaUBKTNV-1">
          <mxGeometry x="60" y="455" width="120" height="60" as="geometry" />
        </mxCell>
        <mxCell id="NfqlUaPuq0_2wCcx_4f7-18" value="" style="edgeStyle=orthogonalEdgeStyle;rounded=0;orthogonalLoop=1;jettySize=auto;html=1;endArrow=classicThin;endFill=1;" edge="1" parent="WIyWlLk6GJQsqaUBKTNV-1" source="NfqlUaPuq0_2wCcx_4f7-16" target="NfqlUaPuq0_2wCcx_4f7-17">
          <mxGeometry relative="1" as="geometry" />
        </mxCell>
        <mxCell id="NfqlUaPuq0_2wCcx_4f7-16" value="call move function&lt;br&gt;returns opcode" style="rounded=1;whiteSpace=wrap;html=1;" vertex="1" parent="WIyWlLk6GJQsqaUBKTNV-1">
          <mxGeometry x="60" y="550" width="120" height="60" as="geometry" />
        </mxCell>
        <mxCell id="NfqlUaPuq0_2wCcx_4f7-20" value="" style="edgeStyle=orthogonalEdgeStyle;rounded=0;orthogonalLoop=1;jettySize=auto;html=1;endArrow=classicThin;endFill=1;" edge="1" parent="WIyWlLk6GJQsqaUBKTNV-1" source="NfqlUaPuq0_2wCcx_4f7-17" target="NfqlUaPuq0_2wCcx_4f7-19">
          <mxGeometry relative="1" as="geometry" />
        </mxCell>
        <mxCell id="NfqlUaPuq0_2wCcx_4f7-17" value="send opcode to&lt;br&gt;frontend" style="rounded=1;whiteSpace=wrap;html=1;" vertex="1" parent="WIyWlLk6GJQsqaUBKTNV-1">
          <mxGeometry x="60" y="640" width="120" height="60" as="geometry" />
        </mxCell>
        <mxCell id="NfqlUaPuq0_2wCcx_4f7-21" style="edgeStyle=orthogonalEdgeStyle;rounded=0;orthogonalLoop=1;jettySize=auto;html=1;exitX=0.5;exitY=1;exitDx=0;exitDy=0;entryX=0.5;entryY=0;entryDx=0;entryDy=0;endArrow=classicThin;endFill=1;" edge="1" parent="WIyWlLk6GJQsqaUBKTNV-1" source="NfqlUaPuq0_2wCcx_4f7-19" target="WIyWlLk6GJQsqaUBKTNV-3">
          <mxGeometry relative="1" as="geometry">
            <Array as="points">
              <mxPoint x="120" y="820" />
              <mxPoint x="660" y="820" />
              <mxPoint x="660" y="160" />
              <mxPoint x="265" y="160" />
            </Array>
          </mxGeometry>
        </mxCell>
        <mxCell id="NfqlUaPuq0_2wCcx_4f7-19" value="gets the answer" style="whiteSpace=wrap;html=1;rounded=1;" vertex="1" parent="WIyWlLk6GJQsqaUBKTNV-1">
          <mxGeometry x="60" y="740" width="120" height="60" as="geometry" />
        </mxCell>
        <mxCell id="NfqlUaPuq0_2wCcx_4f7-26" value="" style="edgeStyle=orthogonalEdgeStyle;rounded=0;orthogonalLoop=1;jettySize=auto;html=1;endArrow=classicThin;endFill=1;" edge="1" parent="WIyWlLk6GJQsqaUBKTNV-1" source="NfqlUaPuq0_2wCcx_4f7-23" target="NfqlUaPuq0_2wCcx_4f7-25">
          <mxGeometry relative="1" as="geometry" />
        </mxCell>
        <mxCell id="NfqlUaPuq0_2wCcx_4f7-23" value="move function" style="shape=parallelogram;perimeter=parallelogramPerimeter;whiteSpace=wrap;html=1;fixedSize=1;" vertex="1" parent="WIyWlLk6GJQsqaUBKTNV-1">
          <mxGeometry x="30" y="900" width="120" height="60" as="geometry" />
        </mxCell>
        <mxCell id="NfqlUaPuq0_2wCcx_4f7-28" value="" style="edgeStyle=orthogonalEdgeStyle;rounded=0;orthogonalLoop=1;jettySize=auto;html=1;endArrow=classicThin;endFill=1;" edge="1" parent="WIyWlLk6GJQsqaUBKTNV-1" source="NfqlUaPuq0_2wCcx_4f7-25" target="NfqlUaPuq0_2wCcx_4f7-27">
          <mxGeometry relative="1" as="geometry" />
        </mxCell>
        <mxCell id="NfqlUaPuq0_2wCcx_4f7-25" value="format&amp;nbsp; move&lt;br&gt;" style="whiteSpace=wrap;html=1;" vertex="1" parent="WIyWlLk6GJQsqaUBKTNV-1">
          <mxGeometry x="30" y="1000" width="120" height="60" as="geometry" />
        </mxCell>
        <mxCell id="NfqlUaPuq0_2wCcx_4f7-38" style="edgeStyle=orthogonalEdgeStyle;rounded=0;orthogonalLoop=1;jettySize=auto;html=1;exitX=0.5;exitY=1;exitDx=0;exitDy=0;entryX=0.5;entryY=0;entryDx=0;entryDy=0;endArrow=classicThin;endFill=1;" edge="1" parent="WIyWlLk6GJQsqaUBKTNV-1" source="NfqlUaPuq0_2wCcx_4f7-27" target="NfqlUaPuq0_2wCcx_4f7-37">
          <mxGeometry relative="1" as="geometry" />
        </mxCell>
        <mxCell id="NfqlUaPuq0_2wCcx_4f7-27" value="gets the piece object from board" style="whiteSpace=wrap;html=1;" vertex="1" parent="WIyWlLk6GJQsqaUBKTNV-1">
          <mxGeometry x="30" y="1100" width="120" height="60" as="geometry" />
        </mxCell>
        <mxCell id="NfqlUaPuq0_2wCcx_4f7-41" value="no" style="edgeStyle=orthogonalEdgeStyle;rounded=0;orthogonalLoop=1;jettySize=auto;html=1;endArrow=classicThin;endFill=1;" edge="1" parent="WIyWlLk6GJQsqaUBKTNV-1" source="NfqlUaPuq0_2wCcx_4f7-37" target="NfqlUaPuq0_2wCcx_4f7-40">
          <mxGeometry relative="1" as="geometry" />
        </mxCell>
        <mxCell id="NfqlUaPuq0_2wCcx_4f7-45" value="yes" style="edgeStyle=orthogonalEdgeStyle;rounded=0;orthogonalLoop=1;jettySize=auto;html=1;endArrow=classicThin;endFill=1;" edge="1" parent="WIyWlLk6GJQsqaUBKTNV-1" source="NfqlUaPuq0_2wCcx_4f7-37" target="NfqlUaPuq0_2wCcx_4f7-44">
          <mxGeometry relative="1" as="geometry" />
        </mxCell>
        <mxCell id="NfqlUaPuq0_2wCcx_4f7-37" value="is the player&amp;nbsp;&lt;br&gt;moving stuff&lt;br&gt;plays in his turn" style="rhombus;whiteSpace=wrap;html=1;" vertex="1" parent="WIyWlLk6GJQsqaUBKTNV-1">
          <mxGeometry x="15" y="1190" width="150" height="130" as="geometry" />
        </mxCell>
        <mxCell id="NfqlUaPuq0_2wCcx_4f7-40" value="return opcode&lt;br&gt;of wrong turn" style="shape=parallelogram;perimeter=parallelogramPerimeter;whiteSpace=wrap;html=1;fixedSize=1;" vertex="1" parent="WIyWlLk6GJQsqaUBKTNV-1">
          <mxGeometry x="260" y="1225" width="120" height="60" as="geometry" />
        </mxCell>
        <mxCell id="NfqlUaPuq0_2wCcx_4f7-48" value="yes" style="edgeStyle=orthogonalEdgeStyle;rounded=0;orthogonalLoop=1;jettySize=auto;html=1;exitX=1;exitY=1;exitDx=0;exitDy=0;entryX=0.5;entryY=0;entryDx=0;entryDy=0;endArrow=classicThin;endFill=1;" edge="1" parent="WIyWlLk6GJQsqaUBKTNV-1" source="NfqlUaPuq0_2wCcx_4f7-44" target="NfqlUaPuq0_2wCcx_4f7-47">
          <mxGeometry x="-0.4483" relative="1" as="geometry">
            <mxPoint as="offset" />
          </mxGeometry>
        </mxCell>
        <mxCell id="NfqlUaPuq0_2wCcx_4f7-52" value="no" style="edgeStyle=orthogonalEdgeStyle;rounded=0;orthogonalLoop=1;jettySize=auto;html=1;endArrow=classicThin;endFill=1;" edge="1" parent="WIyWlLk6GJQsqaUBKTNV-1" source="NfqlUaPuq0_2wCcx_4f7-44" target="NfqlUaPuq0_2wCcx_4f7-51">
          <mxGeometry relative="1" as="geometry" />
        </mxCell>
        <mxCell id="NfqlUaPuq0_2wCcx_4f7-44" value="is it a valid move" style="rhombus;whiteSpace=wrap;html=1;" vertex="1" parent="WIyWlLk6GJQsqaUBKTNV-1">
          <mxGeometry x="-180" y="1215" width="80" height="80" as="geometry" />
        </mxCell>
        <mxCell id="NfqlUaPuq0_2wCcx_4f7-59" value="yes" style="edgeStyle=orthogonalEdgeStyle;rounded=0;orthogonalLoop=1;jettySize=auto;html=1;exitX=1;exitY=0.5;exitDx=0;exitDy=0;entryX=0.5;entryY=0;entryDx=0;entryDy=0;endArrow=classicThin;endFill=1;" edge="1" parent="WIyWlLk6GJQsqaUBKTNV-1" source="NfqlUaPuq0_2wCcx_4f7-47" target="NfqlUaPuq0_2wCcx_4f7-58">
          <mxGeometry relative="1" as="geometry" />
        </mxCell>
        <mxCell id="NfqlUaPuq0_2wCcx_4f7-63" value="no" style="edgeStyle=orthogonalEdgeStyle;rounded=0;orthogonalLoop=1;jettySize=auto;html=1;exitX=0;exitY=0.5;exitDx=0;exitDy=0;entryX=0.5;entryY=0;entryDx=0;entryDy=0;endArrow=classicThin;endFill=1;" edge="1" parent="WIyWlLk6GJQsqaUBKTNV-1" source="NfqlUaPuq0_2wCcx_4f7-47" target="NfqlUaPuq0_2wCcx_4f7-61">
          <mxGeometry relative="1" as="geometry" />
        </mxCell>
        <mxCell id="NfqlUaPuq0_2wCcx_4f7-47" value="is it the src king" style="rhombus;whiteSpace=wrap;html=1;" vertex="1" parent="WIyWlLk6GJQsqaUBKTNV-1">
          <mxGeometry x="-90" y="1310" width="80" height="80" as="geometry" />
        </mxCell>
        <mxCell id="NfqlUaPuq0_2wCcx_4f7-51" value="returns&amp;nbsp;&lt;br&gt;the opcode&amp;nbsp;&lt;br&gt;for the kind of invalid move" style="shape=parallelogram;perimeter=parallelogramPerimeter;whiteSpace=wrap;html=1;fixedSize=1;" vertex="1" parent="WIyWlLk6GJQsqaUBKTNV-1">
          <mxGeometry x="-430" y="1210" width="180" height="82.5" as="geometry" />
        </mxCell>
        <mxCell id="NfqlUaPuq0_2wCcx_4f7-66" value="yes" style="edgeStyle=orthogonalEdgeStyle;rounded=0;orthogonalLoop=1;jettySize=auto;html=1;endArrow=classicThin;endFill=1;" edge="1" parent="WIyWlLk6GJQsqaUBKTNV-1" source="NfqlUaPuq0_2wCcx_4f7-58" target="NfqlUaPuq0_2wCcx_4f7-65">
          <mxGeometry relative="1" as="geometry" />
        </mxCell>
        <mxCell id="NfqlUaPuq0_2wCcx_4f7-69" value="no" style="edgeStyle=orthogonalEdgeStyle;rounded=0;orthogonalLoop=1;jettySize=auto;html=1;endArrow=classicThin;endFill=1;entryX=0.5;entryY=0;entryDx=0;entryDy=0;" edge="1" parent="WIyWlLk6GJQsqaUBKTNV-1" source="NfqlUaPuq0_2wCcx_4f7-58" target="NfqlUaPuq0_2wCcx_4f7-68">
          <mxGeometry relative="1" as="geometry" />
        </mxCell>
        <mxCell id="NfqlUaPuq0_2wCcx_4f7-58" value="is it the white king" style="rhombus;whiteSpace=wrap;html=1;" vertex="1" parent="WIyWlLk6GJQsqaUBKTNV-1">
          <mxGeometry x="40" y="1390" width="80" height="90" as="geometry" />
        </mxCell>
        <mxCell id="NfqlUaPuq0_2wCcx_4f7-71" value="yes" style="edgeStyle=orthogonalEdgeStyle;rounded=0;orthogonalLoop=1;jettySize=auto;html=1;endArrow=classicThin;endFill=1;" edge="1" parent="WIyWlLk6GJQsqaUBKTNV-1" source="NfqlUaPuq0_2wCcx_4f7-61" target="NfqlUaPuq0_2wCcx_4f7-70">
          <mxGeometry relative="1" as="geometry" />
        </mxCell>
        <mxCell id="NfqlUaPuq0_2wCcx_4f7-76" value="no" style="edgeStyle=orthogonalEdgeStyle;rounded=0;orthogonalLoop=1;jettySize=auto;html=1;endArrow=classicThin;endFill=1;entryX=0.5;entryY=0;entryDx=0;entryDy=0;" edge="1" parent="WIyWlLk6GJQsqaUBKTNV-1" source="NfqlUaPuq0_2wCcx_4f7-61" target="NfqlUaPuq0_2wCcx_4f7-79">
          <mxGeometry relative="1" as="geometry">
            <mxPoint x="-470" y="1480" as="targetPoint" />
          </mxGeometry>
        </mxCell>
        <mxCell id="NfqlUaPuq0_2wCcx_4f7-61" value="is the dst king" style="rhombus;whiteSpace=wrap;html=1;" vertex="1" parent="WIyWlLk6GJQsqaUBKTNV-1">
          <mxGeometry x="-380" y="1395" width="80" height="80" as="geometry" />
        </mxCell>
        <mxCell id="NfqlUaPuq0_2wCcx_4f7-65" value="updates the position of the white king" style="whiteSpace=wrap;html=1;" vertex="1" parent="WIyWlLk6GJQsqaUBKTNV-1">
          <mxGeometry x="240" y="1405" width="120" height="60" as="geometry" />
        </mxCell>
        <mxCell id="NfqlUaPuq0_2wCcx_4f7-88" style="edgeStyle=orthogonalEdgeStyle;rounded=0;orthogonalLoop=1;jettySize=auto;html=1;exitX=0.5;exitY=1;exitDx=0;exitDy=0;entryX=0.5;entryY=0;entryDx=0;entryDy=0;endArrow=classicThin;endFill=1;" edge="1" parent="WIyWlLk6GJQsqaUBKTNV-1" source="NfqlUaPuq0_2wCcx_4f7-68" target="NfqlUaPuq0_2wCcx_4f7-87">
          <mxGeometry relative="1" as="geometry" />
        </mxCell>
        <mxCell id="NfqlUaPuq0_2wCcx_4f7-68" value="updates the position of the black king" style="whiteSpace=wrap;html=1;" vertex="1" parent="WIyWlLk6GJQsqaUBKTNV-1">
          <mxGeometry x="-90" y="1480" width="120" height="60" as="geometry" />
        </mxCell>
        <mxCell id="NfqlUaPuq0_2wCcx_4f7-70" value="mate" style="shape=parallelogram;perimeter=parallelogramPerimeter;whiteSpace=wrap;html=1;fixedSize=1;" vertex="1" parent="WIyWlLk6GJQsqaUBKTNV-1">
          <mxGeometry x="-240" y="1405" width="120" height="60" as="geometry" />
        </mxCell>
        <mxCell id="NfqlUaPuq0_2wCcx_4f7-84" style="edgeStyle=orthogonalEdgeStyle;rounded=0;orthogonalLoop=1;jettySize=auto;html=1;exitX=0.5;exitY=1;exitDx=0;exitDy=0;endArrow=classicThin;endFill=1;" edge="1" parent="WIyWlLk6GJQsqaUBKTNV-1" source="NfqlUaPuq0_2wCcx_4f7-79" target="NfqlUaPuq0_2wCcx_4f7-82">
          <mxGeometry relative="1" as="geometry" />
        </mxCell>
        <mxCell id="NfqlUaPuq0_2wCcx_4f7-79" value="continue" style="rounded=0;whiteSpace=wrap;html=1;" vertex="1" parent="WIyWlLk6GJQsqaUBKTNV-1">
          <mxGeometry x="-300" y="1580" width="120" height="60" as="geometry" />
        </mxCell>
        <mxCell id="NfqlUaPuq0_2wCcx_4f7-81" value="yes" style="edgeStyle=orthogonalEdgeStyle;rounded=0;orthogonalLoop=1;jettySize=auto;html=1;endArrow=classicThin;endFill=1;" edge="1" parent="WIyWlLk6GJQsqaUBKTNV-1" source="NfqlUaPuq0_2wCcx_4f7-82" target="NfqlUaPuq0_2wCcx_4f7-83">
          <mxGeometry relative="1" as="geometry" />
        </mxCell>
        <mxCell id="NfqlUaPuq0_2wCcx_4f7-96" value="no" style="edgeStyle=orthogonalEdgeStyle;rounded=0;orthogonalLoop=1;jettySize=auto;html=1;endArrow=classicThin;endFill=1;" edge="1" parent="WIyWlLk6GJQsqaUBKTNV-1" source="NfqlUaPuq0_2wCcx_4f7-82" target="NfqlUaPuq0_2wCcx_4f7-95">
          <mxGeometry relative="1" as="geometry" />
        </mxCell>
        <mxCell id="NfqlUaPuq0_2wCcx_4f7-82" value="are they eating" style="rhombus;whiteSpace=wrap;html=1;" vertex="1" parent="WIyWlLk6GJQsqaUBKTNV-1">
          <mxGeometry x="-280" y="1670" width="80" height="80" as="geometry" />
        </mxCell>
        <mxCell id="NfqlUaPuq0_2wCcx_4f7-104" style="edgeStyle=orthogonalEdgeStyle;rounded=0;orthogonalLoop=1;jettySize=auto;html=1;exitX=0.5;exitY=1;exitDx=0;exitDy=0;entryX=0.5;entryY=0;entryDx=0;entryDy=0;endArrow=classicThin;endFill=1;" edge="1" parent="WIyWlLk6GJQsqaUBKTNV-1" source="NfqlUaPuq0_2wCcx_4f7-83" target="NfqlUaPuq0_2wCcx_4f7-101">
          <mxGeometry relative="1" as="geometry" />
        </mxCell>
        <mxCell id="NfqlUaPuq0_2wCcx_4f7-83" value="eat the piece" style="whiteSpace=wrap;html=1;" vertex="1" parent="WIyWlLk6GJQsqaUBKTNV-1">
          <mxGeometry x="-140" y="1680" width="120" height="60" as="geometry" />
        </mxCell>
        <mxCell id="NfqlUaPuq0_2wCcx_4f7-85" value="return valid opcode" style="shape=parallelogram;perimeter=parallelogramPerimeter;whiteSpace=wrap;html=1;fixedSize=1;" vertex="1" parent="WIyWlLk6GJQsqaUBKTNV-1">
          <mxGeometry x="-160" y="2150" width="150" height="70" as="geometry" />
        </mxCell>
        <mxCell id="NfqlUaPuq0_2wCcx_4f7-94" style="edgeStyle=orthogonalEdgeStyle;rounded=0;orthogonalLoop=1;jettySize=auto;html=1;exitX=0.5;exitY=1;exitDx=0;exitDy=0;entryX=0.5;entryY=0;entryDx=0;entryDy=0;endArrow=classicThin;endFill=1;" edge="1" parent="WIyWlLk6GJQsqaUBKTNV-1" source="NfqlUaPuq0_2wCcx_4f7-87" target="NfqlUaPuq0_2wCcx_4f7-90">
          <mxGeometry relative="1" as="geometry" />
        </mxCell>
        <mxCell id="NfqlUaPuq0_2wCcx_4f7-87" value="continue as king" style="rounded=0;whiteSpace=wrap;html=1;" vertex="1" parent="WIyWlLk6GJQsqaUBKTNV-1">
          <mxGeometry x="100" y="1560" width="120" height="60" as="geometry" />
        </mxCell>
        <mxCell id="NfqlUaPuq0_2wCcx_4f7-89" value="yes" style="edgeStyle=orthogonalEdgeStyle;rounded=0;orthogonalLoop=1;jettySize=auto;html=1;endArrow=classicThin;endFill=1;" edge="1" parent="WIyWlLk6GJQsqaUBKTNV-1" source="NfqlUaPuq0_2wCcx_4f7-90" target="NfqlUaPuq0_2wCcx_4f7-92">
          <mxGeometry relative="1" as="geometry" />
        </mxCell>
        <mxCell id="NfqlUaPuq0_2wCcx_4f7-117" value="no" style="edgeStyle=orthogonalEdgeStyle;rounded=0;orthogonalLoop=1;jettySize=auto;html=1;exitX=0;exitY=0.5;exitDx=0;exitDy=0;entryX=0.5;entryY=0;entryDx=0;entryDy=0;endArrow=classicThin;endFill=1;" edge="1" parent="WIyWlLk6GJQsqaUBKTNV-1" source="NfqlUaPuq0_2wCcx_4f7-90" target="NfqlUaPuq0_2wCcx_4f7-106">
          <mxGeometry relative="1" as="geometry" />
        </mxCell>
        <mxCell id="NfqlUaPuq0_2wCcx_4f7-90" value="are they eating" style="rhombus;whiteSpace=wrap;html=1;" vertex="1" parent="WIyWlLk6GJQsqaUBKTNV-1">
          <mxGeometry x="120" y="1660" width="80" height="80" as="geometry" />
        </mxCell>
        <mxCell id="NfqlUaPuq0_2wCcx_4f7-119" style="edgeStyle=orthogonalEdgeStyle;rounded=0;orthogonalLoop=1;jettySize=auto;html=1;exitX=0.5;exitY=1;exitDx=0;exitDy=0;entryX=0.5;entryY=0;entryDx=0;entryDy=0;endArrow=classicThin;endFill=1;" edge="1" parent="WIyWlLk6GJQsqaUBKTNV-1" source="NfqlUaPuq0_2wCcx_4f7-92" target="NfqlUaPuq0_2wCcx_4f7-106">
          <mxGeometry relative="1" as="geometry" />
        </mxCell>
        <mxCell id="NfqlUaPuq0_2wCcx_4f7-92" value="eat the piece" style="whiteSpace=wrap;html=1;" vertex="1" parent="WIyWlLk6GJQsqaUBKTNV-1">
          <mxGeometry x="260" y="1670" width="120" height="60" as="geometry" />
        </mxCell>
        <mxCell id="NfqlUaPuq0_2wCcx_4f7-121" style="edgeStyle=orthogonalEdgeStyle;rounded=0;orthogonalLoop=1;jettySize=auto;html=1;exitX=0.5;exitY=1;exitDx=0;exitDy=0;entryX=0.5;entryY=0;entryDx=0;entryDy=0;endArrow=classicThin;endFill=1;" edge="1" parent="WIyWlLk6GJQsqaUBKTNV-1" source="NfqlUaPuq0_2wCcx_4f7-95" target="NfqlUaPuq0_2wCcx_4f7-120">
          <mxGeometry relative="1" as="geometry" />
        </mxCell>
        <mxCell id="NfqlUaPuq0_2wCcx_4f7-95" value="move piece" style="whiteSpace=wrap;html=1;" vertex="1" parent="WIyWlLk6GJQsqaUBKTNV-1">
          <mxGeometry x="-460" y="1680" width="120" height="60" as="geometry" />
        </mxCell>
        <mxCell id="NfqlUaPuq0_2wCcx_4f7-102" style="edgeStyle=orthogonalEdgeStyle;rounded=0;orthogonalLoop=1;jettySize=auto;html=1;entryX=0.5;entryY=0;entryDx=0;entryDy=0;endArrow=classicThin;endFill=1;" edge="1" parent="WIyWlLk6GJQsqaUBKTNV-1" source="NfqlUaPuq0_2wCcx_4f7-101" target="NfqlUaPuq0_2wCcx_4f7-85">
          <mxGeometry relative="1" as="geometry" />
        </mxCell>
        <mxCell id="NfqlUaPuq0_2wCcx_4f7-101" value="flip to next turn" style="rounded=0;whiteSpace=wrap;html=1;" vertex="1" parent="WIyWlLk6GJQsqaUBKTNV-1">
          <mxGeometry x="-135" y="2050" width="120" height="60" as="geometry" />
        </mxCell>
        <mxCell id="NfqlUaPuq0_2wCcx_4f7-110" value="yes" style="edgeStyle=orthogonalEdgeStyle;rounded=0;orthogonalLoop=1;jettySize=auto;html=1;endArrow=classicThin;endFill=1;" edge="1" parent="WIyWlLk6GJQsqaUBKTNV-1" source="NfqlUaPuq0_2wCcx_4f7-106" target="NfqlUaPuq0_2wCcx_4f7-109">
          <mxGeometry relative="1" as="geometry" />
        </mxCell>
        <mxCell id="NfqlUaPuq0_2wCcx_4f7-115" value="no" style="edgeStyle=orthogonalEdgeStyle;rounded=0;orthogonalLoop=1;jettySize=auto;html=1;exitX=0;exitY=0.5;exitDx=0;exitDy=0;entryX=0.5;entryY=0;entryDx=0;entryDy=0;endArrow=classicThin;endFill=1;" edge="1" parent="WIyWlLk6GJQsqaUBKTNV-1" source="NfqlUaPuq0_2wCcx_4f7-106" target="NfqlUaPuq0_2wCcx_4f7-101">
          <mxGeometry x="-0.8835" relative="1" as="geometry">
            <mxPoint as="offset" />
          </mxGeometry>
        </mxCell>
        <mxCell id="NfqlUaPuq0_2wCcx_4f7-106" value="dose&lt;br&gt;this&amp;nbsp;&lt;br&gt;&lt;code&gt;Threatened&lt;br&gt;&lt;/code&gt;the king" style="rhombus;whiteSpace=wrap;html=1;" vertex="1" parent="WIyWlLk6GJQsqaUBKTNV-1">
          <mxGeometry x="320" y="1880" width="110" height="100" as="geometry" />
        </mxCell>
        <mxCell id="NfqlUaPuq0_2wCcx_4f7-112" value="" style="edgeStyle=orthogonalEdgeStyle;rounded=0;orthogonalLoop=1;jettySize=auto;html=1;endArrow=classicThin;endFill=1;" edge="1" parent="WIyWlLk6GJQsqaUBKTNV-1" source="NfqlUaPuq0_2wCcx_4f7-109" target="NfqlUaPuq0_2wCcx_4f7-111">
          <mxGeometry relative="1" as="geometry" />
        </mxCell>
        <mxCell id="NfqlUaPuq0_2wCcx_4f7-109" value="revert move" style="whiteSpace=wrap;html=1;" vertex="1" parent="WIyWlLk6GJQsqaUBKTNV-1">
          <mxGeometry x="505" y="1900" width="120" height="60" as="geometry" />
        </mxCell>
        <mxCell id="NfqlUaPuq0_2wCcx_4f7-111" value="return invalid opcode&amp;nbsp;&lt;br&gt;king in danger" style="shape=parallelogram;perimeter=parallelogramPerimeter;whiteSpace=wrap;html=1;fixedSize=1;" vertex="1" parent="WIyWlLk6GJQsqaUBKTNV-1">
          <mxGeometry x="497.5" y="2010" width="135" height="70" as="geometry" />
        </mxCell>
        <mxCell id="NfqlUaPuq0_2wCcx_4f7-123" value="yes" style="edgeStyle=orthogonalEdgeStyle;rounded=0;orthogonalLoop=1;jettySize=auto;html=1;endArrow=classicThin;endFill=1;" edge="1" parent="WIyWlLk6GJQsqaUBKTNV-1" source="NfqlUaPuq0_2wCcx_4f7-120" target="NfqlUaPuq0_2wCcx_4f7-122">
          <mxGeometry relative="1" as="geometry" />
        </mxCell>
        <mxCell id="NfqlUaPuq0_2wCcx_4f7-127" value="no" style="edgeStyle=orthogonalEdgeStyle;rounded=0;orthogonalLoop=1;jettySize=auto;html=1;exitX=0;exitY=0.5;exitDx=0;exitDy=0;entryX=0.5;entryY=0;entryDx=0;entryDy=0;endArrow=classicThin;endFill=1;" edge="1" parent="WIyWlLk6GJQsqaUBKTNV-1" source="NfqlUaPuq0_2wCcx_4f7-120" target="NfqlUaPuq0_2wCcx_4f7-101">
          <mxGeometry x="-0.9474" relative="1" as="geometry">
            <Array as="points">
              <mxPoint x="-620" y="1895" />
              <mxPoint x="-620" y="2000" />
              <mxPoint x="-75" y="2000" />
            </Array>
            <mxPoint as="offset" />
          </mxGeometry>
        </mxCell>
        <mxCell id="NfqlUaPuq0_2wCcx_4f7-120" value="dose&lt;br&gt;this&amp;nbsp;&lt;br&gt;&lt;code&gt;Threatened&lt;br&gt;&lt;/code&gt;any king" style="rhombus;whiteSpace=wrap;html=1;" vertex="1" parent="WIyWlLk6GJQsqaUBKTNV-1">
          <mxGeometry x="-560" y="1840" width="120" height="110" as="geometry" />
        </mxCell>
        <mxCell id="NfqlUaPuq0_2wCcx_4f7-124" value="no" style="edgeStyle=orthogonalEdgeStyle;rounded=0;orthogonalLoop=1;jettySize=auto;html=1;exitX=1;exitY=0.5;exitDx=0;exitDy=0;entryX=0.5;entryY=0;entryDx=0;entryDy=0;endArrow=classicThin;endFill=1;" edge="1" parent="WIyWlLk6GJQsqaUBKTNV-1" source="NfqlUaPuq0_2wCcx_4f7-122" target="NfqlUaPuq0_2wCcx_4f7-101">
          <mxGeometry x="-0.6279" relative="1" as="geometry">
            <mxPoint as="offset" />
          </mxGeometry>
        </mxCell>
        <mxCell id="NfqlUaPuq0_2wCcx_4f7-125" value="yes" style="edgeStyle=orthogonalEdgeStyle;rounded=0;orthogonalLoop=1;jettySize=auto;html=1;exitX=0;exitY=1;exitDx=0;exitDy=0;endArrow=classicThin;endFill=1;entryX=0.5;entryY=0;entryDx=0;entryDy=0;" edge="1" parent="WIyWlLk6GJQsqaUBKTNV-1" source="NfqlUaPuq0_2wCcx_4f7-122" target="NfqlUaPuq0_2wCcx_4f7-126">
          <mxGeometry relative="1" as="geometry">
            <mxPoint x="-290" y="2030" as="targetPoint" />
          </mxGeometry>
        </mxCell>
        <mxCell id="NfqlUaPuq0_2wCcx_4f7-122" value="is win?" style="rhombus;whiteSpace=wrap;html=1;" vertex="1" parent="WIyWlLk6GJQsqaUBKTNV-1">
          <mxGeometry x="-240" y="1880" width="80" height="80" as="geometry" />
        </mxCell>
        <mxCell id="NfqlUaPuq0_2wCcx_4f7-126" value="return win opcode" style="shape=parallelogram;perimeter=parallelogramPerimeter;whiteSpace=wrap;html=1;fixedSize=1;" vertex="1" parent="WIyWlLk6GJQsqaUBKTNV-1">
          <mxGeometry x="-320" y="2015" width="120" height="60" as="geometry" />
        </mxCell>
        <mxCell id="NfqlUaPuq0_2wCcx_4f7-128" value="&lt;font style=&quot;font-size: 32px&quot;&gt;Part B&lt;/font&gt;" style="text;html=1;strokeColor=none;fillColor=none;align=center;verticalAlign=middle;whiteSpace=wrap;rounded=0;" vertex="1" parent="WIyWlLk6GJQsqaUBKTNV-1">
          <mxGeometry x="-210" y="900" width="130" height="80" as="geometry" />
        </mxCell>
        <mxCell id="NfqlUaPuq0_2wCcx_4f7-129" value="&lt;font style=&quot;font-size: 28px&quot;&gt;&lt;b&gt;Part A and Some B&amp;nbsp;&lt;/b&gt;&lt;/font&gt;" style="text;html=1;align=center;verticalAlign=middle;resizable=0;points=[];autosize=1;strokeColor=none;" vertex="1" parent="WIyWlLk6GJQsqaUBKTNV-1">
          <mxGeometry x="-200" y="45" width="270" height="20" as="geometry" />
        </mxCell>
      </root>
    </mxGraphModel>
  </diagram>
</mxfile>
